<?xml version="1.0" standalone="no"?>
<!DOCTYPE svg PUBLIC "-//W3C//DTD SVG 20010904//EN"
 "http://www.w3.org/TR/2001/REC-SVG-20010904/DTD/svg10.dtd">
<svg version="1.0" xmlns="http://www.w3.org/2000/svg"
 width="512.000000pt" height="512.000000pt" viewBox="0 0 512.000000 512.000000"
 preserveAspectRatio="xMidYMid meet">

<g transform="translate(0.000000,512.000000) scale(0.100000,-0.100000)"
fill="#000000" stroke="none">
<path d="M0 2560 l0 -2560 2560 0 2560 0 0 2560 0 2560 -2560 0 -2560 0 0
-2560z m2877 2275 c762 -111 1406 -578 1747 -1265 294 -593 308 -1303 38
-1920 -193 -441 -526 -818 -935 -1060 -366 -215 -752 -320 -1182 -320 -685 0
-1348 323 -1783 868 -322 405 -495 912 -495 1452 0 273 37 488 127 743 173
492 545 938 1009 1211 276 162 637 278 952 306 133 12 388 4 522 -15z m1697
-4072 c17 -66 108 -158 183 -185 18 -7 33 -14 33 -18 0 -3 -21 -14 -48 -25
-60 -25 -132 -97 -157 -157 -11 -27 -22 -48 -25 -48 -3 0 -13 19 -23 43 -27
67 -89 131 -151 158 -31 13 -56 26 -56 29 0 3 21 14 48 25 60 25 132 97 157
157 11 27 23 48 26 48 4 0 10 -12 13 -27z"/>
<path d="M2295 4735 c-186 -23 -385 -72 -550 -135 -138 -53 -362 -179 -479
-270 -33 -25 -82 -62 -109 -83 -146 -113 -366 -366 -470 -540 -175 -295 -267
-567 -303 -902 -99 -924 378 -1793 1211 -2206 304 -151 611 -222 965 -222 342
-1 627 62 925 203 479 226 867 621 1077 1095 218 491 247 1070 79 1582 -61
188 -181 427 -279 558 -141 188 -299 356 -437 462 -306 235 -585 364 -935 432
-214 42 -486 52 -695 26z m638 -149 c794 -151 1423 -738 1622 -1515 77 -302
79 -658 5 -976 -64 -274 -206 -571 -377 -787 -244 -309 -532 -525 -886 -664
-237 -94 -460 -136 -732 -138 -250 -1 -472 36 -697 118 -196 71 -478 234 -622
359 -34 30 -72 62 -84 73 -13 10 -62 62 -110 114 -305 339 -462 673 -533 1135
-19 119 -16 428 4 561 68 440 258 819 569 1132 130 131 207 195 333 279 215
144 472 251 725 302 168 34 243 40 450 36 158 -2 221 -8 333 -29z"/>
<path d="M2450 4564 c-293 -24 -528 -84 -745 -188 -506 -243 -902 -694 -1061
-1209 -115 -372 -120 -779 -13 -1146 148 -509 474 -925 938 -1198 228 -135
502 -223 786 -254 167 -18 430 -6 585 26 801 165 1424 783 1584 1571 46 223
56 448 31 639 -64 484 -294 926 -645 1242 -83 75 -139 118 -220 173 -36 24
-77 51 -91 61 -49 33 -294 148 -370 173 -113 38 -262 73 -379 90 -110 16 -324
26 -400 20z m267 -714 c14 -11 35 -20 47 -20 37 0 141 -39 202 -76 32 -19 64
-32 72 -29 22 8 52 -14 52 -38 0 -42 -44 -63 -70 -33 -6 8 -17 13 -23 11 -7
-2 -38 -11 -69 -20 l-58 -16 0 -42 c-1 -76 -51 -127 -126 -127 -40 0 -42 -1
-52 -42 -6 -24 -10 -56 -9 -73 2 -25 -2 -30 -24 -33 -38 -4 -48 27 -16 53 14
11 30 37 36 57 12 36 11 39 -16 63 -15 13 -33 25 -39 25 -20 0 -102 -50 -109
-68 -11 -26 -17 -432 -7 -432 5 0 37 30 72 68 35 37 119 124 187 194 88 91
123 134 123 151 0 29 23 52 44 44 20 -8 230 206 234 238 4 31 26 48 52 40 33
-11 24 -59 -12 -63 -20 -2 -57 -34 -135 -118 -60 -63 -107 -122 -105 -130 5
-22 -17 -44 -43 -44 -15 0 -79 -60 -219 -205 -109 -113 -202 -205 -207 -205
-5 0 -9 96 -9 216 0 194 -2 218 -17 229 -17 13 -17 14 0 32 23 27 25 188 2
197 -22 8 -19 53 4 66 15 7 24 5 41 -8 19 -16 21 -22 11 -40 -6 -12 -16 -22
-21 -22 -6 0 -10 -39 -10 -90 0 -53 4 -90 10 -90 5 0 32 12 59 27 l49 28 -5
46 c-6 53 13 100 52 125 28 19 33 56 10 76 -9 7 -24 21 -34 31 -16 16 -26 17
-72 9 -90 -17 -169 -51 -169 -72 0 -11 -10 -28 -21 -39 -17 -16 -21 -27 -16
-55 3 -20 1 -38 -4 -41 -5 -4 -9 13 -9 38 0 72 -18 75 -80 12 -37 -38 -51 -59
-48 -73 9 -32 -10 -54 -43 -50 -41 4 -134 -74 -119 -101 8 -16 16 -17 61 -9
33 6 59 17 70 31 14 18 21 20 36 11 24 -14 28 -47 8 -64 -21 -18 -22 -162 0
-180 8 -7 15 -20 15 -30 0 -10 -7 -23 -15 -30 -22 -18 -22 -205 1 -227 8 -9
14 -25 12 -37 -3 -18 -10 -21 -51 -21 -34 0 -43 3 -34 10 8 6 17 20 21 33 4
12 12 22 17 22 5 0 9 47 9 105 0 86 -3 106 -16 113 -26 14 -91 -15 -98 -44 -4
-13 -11 -24 -17 -24 -6 0 -8 -20 -5 -52 l5 -53 -10 45 c-6 25 -15 49 -20 55
-6 6 -30 -11 -64 -45 -43 -43 -52 -57 -44 -71 5 -10 9 -26 9 -36 -1 -11 -6 -7
-14 13 -19 42 -52 64 -98 64 -21 0 -38 4 -38 8 0 9 84 0 111 -12 18 -8 122 79
116 98 -2 6 -17 14 -33 17 -29 7 -29 7 -3 8 45 2 52 22 29 82 -12 30 -24 57
-28 60 -4 4 -30 9 -58 12 l-52 6 -48 -61 c-43 -55 -46 -62 -30 -73 15 -11 15
-13 1 -19 -8 -3 -20 -16 -25 -28 -5 -13 -9 -17 -9 -10 -2 29 -43 8 -90 -45
-28 -31 -51 -53 -51 -47 0 5 22 32 49 58 61 60 65 92 14 136 -18 16 -33 33
-33 37 0 4 17 -9 38 -28 51 -49 78 -42 135 35 42 56 44 62 30 82 l-14 22 -90
-30 c-69 -23 -92 -36 -99 -53 -5 -12 -16 -25 -24 -28 -19 -7 -46 1 -46 14 0
17 -29 9 -97 -27 -104 -54 -169 -127 -133 -149 15 -9 -14 -35 -39 -35 -11 0
-25 -8 -30 -17 -6 -10 -11 -13 -11 -6 0 6 4 15 10 18 5 3 7 19 4 34 -5 23 -2
32 15 40 12 7 21 8 21 4 0 -4 24 15 53 43 53 52 96 81 155 104 48 19 86 58
111 115 12 28 35 67 51 87 17 20 30 46 30 56 0 26 24 45 48 38 23 -8 132 40
150 66 13 18 52 24 66 11 4 -5 41 -15 81 -24 60 -12 76 -13 90 -2 10 7 21 10
26 8 12 -8 116 101 123 129 6 25 44 44 64 32 5 -3 35 6 68 19 32 13 87 29 121
35 35 7 68 19 74 26 16 20 47 17 76 -6z m758 -75 c0 -25 -4 -30 -27 -33 -20
-2 -61 -38 -153 -134 -68 -73 -128 -128 -132 -124 -4 3 50 64 120 134 79 80
127 135 127 148 0 27 20 45 45 42 15 -2 20 -11 20 -33z m-250 -145 c3 -5 1
-19 -6 -32 -11 -20 -12 -21 -25 -4 -7 10 -10 24 -7 32 6 16 29 19 38 4z m175
-22 c0 -12 -10 -23 -29 -29 -17 -6 -55 -39 -85 -74 -49 -55 -56 -69 -56 -104
0 -23 -4 -41 -10 -41 -5 0 -10 21 -10 48 0 46 3 50 70 117 38 37 67 72 64 76
-7 12 26 39 41 33 8 -4 15 -15 15 -26z m108 0 c3 -23 -1 -28 -25 -34 -17 -4
-69 -46 -130 -107 -57 -56 -103 -98 -103 -93 0 4 42 53 94 108 59 63 96 111
100 130 5 25 10 29 33 26 22 -2 29 -9 31 -30z m-537 -13 c-1 -15 -24 -12 -29
3 -3 9 2 13 12 10 10 -1 17 -7 17 -13z m-595 -58 c16 -9 19 -53 4 -62 -5 -3
-10 -26 -10 -51 0 -24 -4 -44 -10 -44 -5 0 -10 19 -10 42 0 25 -7 49 -17 60
-14 16 -15 22 -5 36 7 9 15 26 19 37 5 15 8 16 11 5 3 -8 11 -19 18 -23z m754
-7 c0 -13 -7 -20 -20 -20 -19 0 -27 20 -13 33 13 14 33 6 33 -13z m-78 -73
c-24 -25 -32 -42 -32 -70 0 -36 -1 -37 -36 -37 -31 0 -44 -9 -100 -67 -35 -38
-64 -61 -64 -53 0 8 26 40 57 72 47 47 63 58 90 58 30 0 33 3 33 30 0 20 12
43 36 70 20 22 39 38 42 35 3 -3 -9 -20 -26 -38z m437 -42 c12 -31 21 -65 21
-75 0 -11 5 -20 10 -20 6 0 15 -11 22 -25 6 -14 23 -27 39 -30 34 -8 135 -73
168 -108 13 -15 28 -24 32 -21 5 3 18 0 29 -6 16 -9 21 -20 19 -43 -1 -18 6
-50 15 -72 10 -22 23 -66 30 -97 6 -31 19 -65 29 -75 22 -25 22 -49 -2 -65
-10 -7 -22 -29 -26 -48 -4 -19 -24 -72 -46 -117 -21 -45 -39 -90 -39 -100 0
-25 -19 -43 -46 -43 -12 0 -48 -16 -80 -35 -80 -48 -142 -65 -241 -65 -50 0
-83 -4 -83 -10 0 -16 -43 -29 -62 -18 -25 12 -23 55 2 68 11 6 24 8 29 5 5 -3
22 12 39 32 l29 37 -20 34 -20 34 -65 -6 c-48 -5 -69 -12 -82 -28 -11 -14 -23
-19 -34 -15 -25 10 -31 35 -12 56 23 26 23 161 0 161 -35 0 -83 41 -95 81 -12
37 -14 39 -55 39 -29 0 -44 -5 -48 -16 -9 -24 -50 -14 -54 14 -4 27 23 40 49
24 10 -7 36 -12 58 -12 36 0 39 2 45 33 7 39 39 72 84 88 31 10 32 13 32 65 0
32 -4 54 -11 54 -6 0 -9 12 -7 27 4 34 36 43 55 17 9 -13 30 -19 73 -22 51 -4
60 -2 60 13 0 17 46 69 68 76 9 3 9 21 -3 83 -8 44 -20 85 -26 93 -17 19 8 48
27 32 10 -8 11 -15 4 -24 -6 -8 -5 -37 5 -89 8 -43 15 -80 15 -82 0 -2 7 -4
16 -4 40 0 87 -34 106 -78 14 -31 24 -42 35 -38 8 3 50 6 94 6 72 0 79 2 79
20 0 12 -20 34 -52 59 -92 68 -136 83 -178 61 -42 -22 -79 33 -46 69 21 23 20
40 -4 103 -23 62 -23 58 -11 58 5 0 19 -25 30 -55z m-1059 -220 c-16 -17 -20
-35 -20 -84 0 -57 2 -62 16 -50 12 10 15 24 10 56 -4 33 -2 43 9 43 20 0 29
-20 16 -33 -6 -6 -11 -22 -11 -34 0 -13 -10 -37 -21 -53 -14 -18 -20 -37 -17
-54 3 -15 1 -29 -3 -32 -5 -3 -9 49 -9 114 0 94 3 122 15 132 12 10 15 38 15
130 0 64 3 120 8 124 4 4 8 -47 10 -115 2 -111 1 -124 -18 -144z m723 248 c15
-2 27 -11 27 -19 0 -10 -15 -14 -60 -14 -45 0 -60 4 -60 14 0 23 33 29 93 19z
m-860 -58 c4 -8 2 -17 -3 -20 -6 -4 -10 -48 -10 -99 0 -80 3 -95 20 -111 17
-16 20 -31 20 -108 0 -50 -2 -88 -4 -86 -3 2 -8 42 -11 89 -4 47 -13 92 -20
100 -9 10 -14 52 -15 125 -1 61 -2 113 -1 118 2 13 19 8 24 -8z m884 -22 l-3
-38 -56 -3 -57 -3 1 41 0 40 59 0 58 0 -2 -37z m-772 -47 c4 -18 5 -44 3 -57
-3 -21 -8 -24 -48 -24 l-45 1 -3 57 -3 57 45 0 c43 0 45 -1 51 -34z m611 -41
c-15 -14 -39 -25 -54 -25 -16 0 -39 -12 -59 -32 -18 -18 -33 -27 -33 -22 0 21
56 63 92 69 20 4 44 16 54 26 9 11 19 17 22 14 3 -3 -7 -16 -22 -30z m184 4
c0 -4 -10 -11 -22 -14 -31 -10 -138 -115 -138 -136 0 -32 -12 -49 -34 -49 -14
0 -61 -40 -139 -118 -64 -64 -117 -121 -117 -125 0 -4 50 -65 111 -135 72 -82
118 -127 131 -127 22 0 49 -31 42 -49 -8 -20 64 -94 94 -98 22 -2 28 -9 32
-36 7 -46 242 -312 276 -312 26 0 47 -30 38 -54 -3 -9 -18 -19 -32 -23 -20 -5
-29 -1 -40 15 -10 16 -25 22 -51 22 -34 0 -43 6 -84 58 -61 75 -61 90 1 18 43
-51 50 -55 90 -56 23 0 42 2 42 5 0 15 -252 291 -263 287 -19 -6 -47 20 -47
43 0 30 -65 105 -91 105 -19 0 -39 28 -39 55 0 9 -37 57 -82 107 -46 50 -99
109 -119 132 l-37 40 122 129 c75 79 123 138 126 155 4 20 12 28 31 30 16 2
49 26 84 63 57 56 58 59 32 59 -18 0 -38 -12 -64 -40 -28 -30 -46 -40 -69 -40
-39 0 -81 -43 -87 -90 -4 -35 -4 -35 -5 6 -2 32 4 46 26 67 15 15 42 29 59 33
17 3 46 21 64 40 23 24 42 34 63 34 17 0 40 7 50 15 19 14 46 5 46 -16z m95
-60 c0 -7 -8 -15 -17 -17 -18 -3 -25 18 -11 32 10 10 28 1 28 -15z m-925 -139
c0 -68 -4 -121 -10 -125 -6 -4 -10 40 -10 125 0 85 4 129 10 125 6 -4 10 -57
10 -125z m440 108 c0 -6 3 -8 7 -5 15 16 33 -18 33 -64 l0 -49 -50 0 -50 0 0
58 c0 32 3 62 7 65 11 12 53 8 53 -5z m-862 -55 c-10 -2 -28 -2 -40 0 -13 2
-5 4 17 4 22 1 32 -1 23 -4z m-368 -23 c-14 -4 -36 -8 -50 -8 -22 0 -22 1 5 8
17 4 39 8 50 8 16 0 15 -2 -5 -8z m1058 -137 c-72 -72 -73 -73 -125 -73 -29 0
-53 5 -53 10 0 6 24 10 54 10 l54 0 66 72 c48 53 66 80 68 103 1 25 2 23 5 -9
4 -37 1 -43 -69 -113z m-348 96 c0 -5 -7 -9 -15 -9 -15 0 -20 12 -9 23 8 8 24
-1 24 -14z m460 -56 c-19 -21 -62 -66 -95 -100 l-59 -63 -63 0 c-35 0 -63 4
-63 10 0 6 28 10 64 10 l65 0 82 90 c45 50 87 90 93 90 5 0 -6 -17 -24 -37z
m-470 -9 c0 -20 -7 -17 -20 6 -9 16 -8 18 5 14 8 -4 15 -12 15 -20z m554 7
c10 -16 -5 -41 -24 -41 -10 0 -47 -30 -83 -67 l-65 -67 71 -81 c39 -44 80 -85
91 -90 28 -14 27 -39 -1 -43 -17 -3 -23 2 -23 16 0 11 -35 60 -78 108 l-79 89
74 80 c40 44 73 85 73 92 0 15 36 18 44 4z m-1068 -27 c-34 -35 -37 -107 -5
-150 l21 -29 -26 28 c-36 39 -37 112 -1 151 13 14 27 26 31 26 4 0 -5 -12 -20
-26z m-495 -15 c-5 -13 -10 -19 -10 -12 -1 15 10 45 15 40 3 -2 0 -15 -5 -28z
m228 -3 c-2 -2 -17 -6 -34 -10 -22 -5 -26 -4 -15 4 14 9 59 15 49 6z m395 -5
c3 -5 -1 -12 -10 -15 -35 -13 -99 -2 -88 15 3 5 25 9 49 9 24 0 46 -4 49 -9z
m-464 -15 c0 -2 -7 -9 -15 -16 -13 -11 -14 -10 -9 4 5 14 24 23 24 12z m148
-27 c20 -32 10 -30 -16 2 -13 16 -17 27 -10 24 7 -3 19 -15 26 -26z m312 1
c-20 -13 -97 -13 -105 0 -4 6 17 10 57 10 44 0 59 -3 48 -10z m222 -38 c32
-23 18 -62 -25 -66 -5 -1 -17 -12 -29 -26 l-20 -25 15 26 c18 31 12 69 -12 70
-10 0 -8 4 7 10 13 5 27 19 30 31 4 16 7 18 10 8 3 -8 13 -21 24 -28z m293 4
c11 -16 15 -41 13 -78 l-3 -53 -52 -3 c-50 -3 -55 -6 -88 -49 -19 -25 -35 -54
-35 -64 0 -11 -4 -19 -9 -19 -6 0 -10 -104 -11 -257 0 -141 -3 -259 -5 -262
-3 -2 -5 110 -5 249 0 217 -2 254 -16 264 -20 15 -8 45 21 52 13 3 37 23 54
44 29 36 31 44 31 119 l0 81 45 0 c36 0 48 -5 60 -24z m-505 3 c0 -10 -72 -19
-97 -13 -42 11 -24 20 37 20 33 -1 60 -4 60 -7z m56 -15 c-9 -8 -16 -20 -16
-26 0 -6 -3 -9 -6 -6 -8 9 14 48 27 48 6 0 3 -7 -5 -16z m-61 -19 c21 -6 -66
-17 -90 -11 -44 11 -27 23 28 19 28 -3 57 -6 62 -8z m-436 -28 c8 -10 7 -14
-4 -14 -8 0 -15 6 -15 14 0 7 2 13 4 13 2 0 9 -6 15 -13z m-35 -50 l21 -18
-22 11 c-22 10 -43 39 -43 57 0 4 6 -1 12 -12 6 -11 20 -28 32 -38z m166 44
c0 -5 -9 -19 -20 -32 l-20 -24 17 32 c19 34 23 39 23 24z m317 -8 c-14 -16
-14 -22 -1 -52 8 -18 14 -38 13 -45 0 -6 -9 11 -20 38 -19 46 -19 49 -2 62 25
19 29 17 10 -3z m299 5 c22 2 34 -3 38 -14 9 -22 -11 -44 -40 -44 -18 0 -24 6
-24 21 0 12 -8 28 -17 36 -10 8 -11 11 -3 7 8 -4 29 -7 46 -6z m508 -128 c103
-117 113 -125 151 -128 22 -2 43 -6 47 -10 4 -4 -16 -5 -45 -3 l-52 4 -106
121 -106 121 -66 3 c-37 2 -67 7 -67 13 0 6 27 9 67 7 l66 -3 111 -125z m-861
103 c-7 -2 -19 -2 -25 0 -7 3 -2 5 12 5 14 0 19 -2 13 -5z m-109 -43 c-10 -16
-20 -28 -22 -26 -4 5 28 56 35 56 2 0 -4 -13 -13 -30z m928 -94 c81 -95 97
-119 100 -152 1 -22 -1 -39 -7 -39 -5 0 -9 16 -7 35 3 32 -6 45 -93 143 -89
99 -100 107 -133 107 -21 0 -44 5 -52 10 -11 7 1 10 40 9 l55 -1 97 -112z
m-517 88 c-26 -20 -55 -36 -55 -30 0 5 63 46 70 46 3 -1 -4 -8 -15 -16z m-898
-16 c-3 -8 -6 -5 -6 6 -1 11 2 17 5 13 3 -3 4 -12 1 -19z m350 0 c-3 -8 -6 -5
-6 6 -1 11 2 17 5 13 3 -3 4 -12 1 -19z m402 -20 c-10 -18 -8 -24 7 -35 10 -7
13 -13 7 -13 -22 0 -35 28 -23 49 6 12 13 21 16 21 2 0 -1 -10 -7 -22z m-299
-8 c0 -5 -2 -10 -4 -10 -3 0 -8 5 -11 10 -3 6 -1 10 4 10 6 0 11 -4 11 -10z
m369 -3 c-2 -1 -13 -9 -24 -17 -19 -14 -19 -14 -6 3 7 9 18 17 24 17 6 0 8 -1
6 -3z m278 -229 c-1 -46 -3 -11 -3 77 0 88 2 125 3 83 2 -42 2 -114 0 -160z
m73 96 c14 -17 14 -18 -2 -6 -15 12 -17 9 -21 -30 -2 -24 -4 7 -4 67 0 84 1
96 6 49 3 -34 13 -70 21 -80z m195 -8 c96 -110 133 -146 153 -148 22 -2 28 -9
30 -32 5 -45 221 -291 262 -300 27 -5 31 -9 28 -33 -5 -47 -59 -42 -62 6 -2
29 -232 291 -256 291 -22 0 -31 12 -35 45 -1 14 -40 66 -91 122 -49 54 -101
113 -116 131 -15 17 -29 32 -32 32 -2 0 -7 -15 -9 -32 -3 -25 -4 -22 -5 15 -1
26 0 47 2 47 3 0 61 -65 131 -144z m423 116 c2 -7 -5 -12 -17 -12 -14 0 -19 5
-14 15 6 17 25 15 31 -3z m-1758 -37 c0 -5 -5 -3 -10 5 -5 8 -10 20 -10 25 0
6 5 3 10 -5 5 -8 10 -19 10 -25z m695 -9 c0 -36 -27 -56 -52 -40 -40 25 -20
77 26 72 21 -2 26 -8 26 -32z m-105 -6 c0 -17 -2 -19 -14 -8 -10 9 -11 15 -2
20 16 11 16 10 16 -12z m-232 3 c-10 -2 -28 -2 -40 0 -13 2 -5 4 17 4 22 1 32
-1 23 -4z m-330 -37 c14 -24 29 -35 49 -38 22 -2 28 -8 28 -28 -1 -41 102
-106 201 -128 36 -8 44 -7 58 10 11 12 24 17 36 13 14 -5 33 6 68 39 27 25 52
46 57 46 4 0 -16 -21 -44 -46 -79 -71 -75 -74 102 -76 l152 -2 -153 -3 c-123
-3 -154 -6 -158 -18 -8 -19 -60 -20 -67 -2 -3 8 -35 22 -71 31 -38 11 -95 37
-132 62 -36 23 -72 40 -78 38 -7 -3 -19 3 -27 12 -13 16 -12 16 7 6 22 -11 55
0 35 12 -6 4 -9 12 -6 17 4 5 1 9 -4 9 -6 0 -11 -4 -11 -10 0 -5 -7 -10 -16
-10 -8 0 -12 5 -9 11 4 5 0 18 -8 27 -17 20 -40 62 -33 62 2 0 13 -15 24 -34z
m369 -2 c-3 -3 -12 -4 -19 -1 -8 3 -5 6 6 6 11 1 17 -2 13 -5z m323 -18 c-9
-12 -6 -24 15 -60 15 -25 25 -46 22 -46 -3 0 -17 21 -32 46 -21 36 -24 48 -15
60 7 8 15 14 17 14 3 0 0 -6 -7 -14z m285 -6 c-10 -11 -21 -18 -23 -15 -3 3 3
12 14 20 27 20 30 18 9 -5z m-185 -5 c0 -8 -4 -15 -10 -15 -5 0 -10 7 -10 15
0 8 5 15 10 15 6 0 10 -7 10 -15z m-552 -23 c2 -7 -3 -12 -12 -12 -9 0 -16 7
-16 16 0 17 22 14 28 -4z m939 -194 c-1 -40 -3 -8 -3 72 0 80 2 112 3 73 2
-40 2 -106 0 -145z m-652 182 c-3 -5 -12 -10 -18 -10 -7 0 -6 4 3 10 19 12 23
12 15 0z m1058 -24 c11 -9 17 -27 17 -55 l0 -42 -42 3 c-42 3 -43 4 -46 42 -1
22 0 46 2 53 7 17 46 16 69 -1z m-623 -11 c0 -8 -4 -15 -10 -15 -5 0 -10 7
-10 15 0 8 5 15 10 15 6 0 10 -7 10 -15z m180 -30 c0 -8 -4 -15 -9 -15 -13 0
-22 16 -14 24 11 11 23 6 23 -9z m-48 -29 c2 -19 0 -32 -4 -30 -8 5 -12 64 -4
64 2 0 6 -15 8 -34z m601 20 c7 -16 -1 -26 -20 -26 -7 0 -13 9 -13 20 0 23 25
27 33 6z m-873 -71 c0 -16 -21 -35 -39 -35 -12 0 -11 3 2 18 10 10 15 21 12
24 -3 2 2 5 10 5 8 0 15 -5 15 -12z m137 -27 c-3 -7 -5 -2 -5 12 0 14 2 19 5
13 2 -7 2 -19 0 -25z m793 -81 c-3 -1 -30 24 -60 58 l-54 60 59 -57 c32 -32
57 -59 55 -61z m-701 76 c0 -11 -3 -13 -6 -5 -2 6 -13 12 -23 12 -23 0 -16
-37 9 -43 10 -3 6 -5 -9 -6 -21 -1 -22 -3 -10 -12 13 -9 13 -10 0 -6 -9 2 -16
18 -18 40 -3 35 -2 37 27 37 23 0 31 -4 30 -17z m628 -63 c6 0 17 -8 24 -17
12 -16 12 -17 -2 -5 -9 7 -24 10 -33 6 -9 -3 -16 -2 -16 3 0 5 -17 29 -37 54
l-37 44 45 -42 c25 -24 50 -43 56 -43z m118 12 c-3 -3 -6 -3 -7 -1 -2 2 -14
18 -28 34 l-25 30 32 -29 c18 -16 31 -32 28 -34z m-824 -129 c13 -15 3 -33
-18 -33 -12 0 -14 7 -9 31 3 17 7 61 8 98 l2 66 3 -75 c2 -41 9 -80 14 -87z
m906 69 c1 -29 -1 -33 -7 -16 -5 12 -14 25 -21 30 -9 5 -7 9 7 15 10 4 19 8
19 8 0 1 1 -16 2 -37z m-77 13 c-7 -9 -15 -13 -17 -11 -7 7 7 26 19 26 6 0 6
-6 -2 -15z m-623 -128 c-2 -23 -3 -1 -3 48 0 50 1 68 3 42 2 -26 2 -67 0 -90z
m579 4 c-5 -2 -16 5 -25 17 -81 102 -84 107 -25 47 32 -33 55 -62 50 -64z m58
83 c3 -8 2 -12 -4 -9 -6 3 -10 10 -10 16 0 14 7 11 14 -7z m-777 -91 c-2 -21
-4 -6 -4 32 0 39 2 55 4 38 2 -18 2 -50 0 -70z m819 62 c-11 -8 -27 -15 -35
-15 -9 1 -2 7 14 15 39 18 44 18 21 0z m0 -79 c8 -14 27 -26 42 -28 21 -2 27
-8 27 -28 0 -33 -38 -36 -43 -3 -2 12 -19 36 -38 53 -21 18 -29 30 -20 30 9 0
23 -11 32 -24z m-957 -84 c-12 -5 -39 17 -39 30 0 5 11 1 24 -9 13 -10 20 -20
15 -21z m-1039 -302 c0 -35 3 -40 23 -40 15 0 30 12 47 40 18 29 32 40 49 40
23 0 23 -1 7 -25 -53 -82 -51 -70 -17 -123 36 -57 37 -62 13 -62 -10 0 -32 20
-50 45 -20 28 -39 45 -52 45 -17 0 -20 -7 -20 -45 0 -38 -3 -45 -20 -45 -19 0
-20 7 -20 105 0 98 1 105 20 105 17 0 20 -7 20 -40z m282 -44 l48 -79 0 81 c0
76 2 82 20 82 20 0 21 -5 18 -102 l-3 -103 -27 -3 c-23 -3 -32 6 -75 78 l-48
81 -3 -81 c-3 -72 -5 -80 -22 -80 -19 0 -20 7 -20 106 l0 105 32 -3 c28 -3 38
-12 80 -82z m317 58 c15 -19 21 -41 21 -79 0 -38 -6 -60 -21 -79 -18 -23 -27
-26 -88 -26 -90 0 -105 15 -105 105 0 90 15 105 105 105 61 0 70 -3 88 -26z
m96 -56 l18 -83 22 80 c21 76 23 80 51 80 27 0 30 -4 50 -75 l21 -75 11 40 c6
22 15 56 19 75 7 26 15 36 32 38 27 4 26 -3 -12 -130 -20 -64 -26 -73 -48 -76
-24 -3 -27 2 -49 79 -13 46 -25 78 -26 73 -39 -143 -45 -155 -72 -152 -25 3
-29 10 -54 103 -15 55 -27 101 -28 103 0 1 11 2 24 2 21 0 25 -8 41 -82z m310
7 c0 -38 4 -76 8 -82 5 -8 31 -13 68 -13 52 0 59 -2 59 -20 0 -18 -7 -20 -68
-20 -99 0 -106 8 -111 120 -3 91 -3 92 20 88 23 -3 24 -7 24 -73z m333 58 c-2
-14 -17 -19 -68 -23 -51 -4 -66 -9 -68 -22 -3 -16 5 -18 62 -18 59 0 66 -2 66
-20 0 -18 -7 -20 -66 -20 -62 0 -65 -1 -62 -22 3 -21 9 -23 71 -26 59 -3 67
-5 67 -22 0 -18 -7 -20 -72 -20 -97 0 -108 10 -108 106 0 96 8 104 106 104 66
0 75 -2 72 -17z m202 -3 c16 -16 20 -33 20 -85 0 -91 -15 -105 -115 -105 l-75
0 0 105 0 105 75 0 c62 0 79 -4 95 -20z m250 0 c0 -18 -7 -20 -70 -20 -76 0
-90 -10 -90 -65 0 -50 16 -65 70 -65 47 0 50 2 50 25 0 22 -4 25 -36 25 -28 0
-35 3 -32 18 2 13 15 18 56 20 l52 3 0 -53 c0 -30 -5 -59 -12 -66 -7 -7 -39
-12 -75 -12 -54 0 -68 4 -88 25 -20 19 -25 34 -25 75 0 51 12 88 34 102 6 4
46 8 89 8 70 0 77 -2 77 -20z m210 0 c0 -17 -8 -19 -67 -22 -54 -2 -68 -6 -71
-20 -3 -14 7 -18 65 -20 55 -2 68 -6 71 -20 3 -16 -5 -18 -67 -18 -52 0 -71
-4 -71 -13 0 -26 25 -37 82 -37 51 0 58 -2 58 -20 0 -18 -7 -20 -70 -20 -94 0
-110 15 -110 103 0 94 13 107 106 107 67 0 74 -2 74 -20z m297 8 c4 -7 8 -48
10 -90 2 -102 -4 -108 -108 -108 l-79 0 0 105 0 105 84 0 c57 0 87 -4 93 -12z
m83 -93 c0 -98 -1 -105 -20 -105 -19 0 -20 7 -20 105 0 98 1 105 20 105 19 0
20 -7 20 -105z m220 85 c0 -17 -7 -20 -40 -20 l-40 0 0 -86 c0 -76 -2 -85 -17
-82 -15 3 -18 16 -21 86 l-3 82 -34 0 c-28 0 -35 4 -35 20 0 19 7 20 95 20 88
0 95 -1 95 -20z m200 0 c0 -18 -7 -20 -64 -20 -46 0 -65 -4 -69 -14 -8 -21 2
-26 55 -26 76 0 111 -52 72 -108 -13 -19 -24 -22 -90 -22 -67 0 -74 2 -74 20
0 17 8 19 68 22 59 3 67 5 67 23 0 17 -8 20 -57 23 -33 2 -61 9 -68 17 -16 20
-15 86 2 96 7 5 46 9 86 9 65 0 72 -2 72 -20z m-2273 -332 c6 -7 16 -31 23
-53 19 -62 26 -61 47 2 17 50 23 58 46 61 l27 3 0 -75 c0 -60 -3 -76 -15 -76
-10 0 -15 15 -17 58 l-3 57 -21 -55 c-31 -80 -54 -80 -85 2 l-24 63 -3 -62
c-2 -47 -7 -63 -18 -63 -11 0 -13 12 -10 63 3 34 5 68 6 75 0 6 8 12 19 12 10
0 23 -6 28 -12z m203 -63 c0 -60 -3 -75 -15 -75 -12 0 -15 15 -15 75 0 60 3
75 15 75 12 0 15 -15 15 -75z m160 65 c0 -5 -15 -10 -34 -10 -57 0 -66 -8 -66
-56 l0 -44 50 0 c38 0 50 -4 50 -15 0 -19 -100 -21 -118 -3 -7 7 -12 35 -12
63 0 28 5 56 12 63 14 14 118 16 118 2z m158 -2 c15 -15 15 -53 0 -78 -10 -15
-10 -22 0 -32 16 -16 15 -28 -3 -28 -9 0 -21 11 -27 25 -8 18 -19 25 -40 25
-23 0 -28 -4 -28 -25 0 -16 -6 -25 -15 -25 -12 0 -15 15 -15 75 l0 75 58 0
c32 0 63 -5 70 -12z m180 0 c17 -17 15 -113 -2 -127 -9 -7 -38 -11 -73 -9
l-58 3 -3 64 c-2 45 1 67 10 72 20 13 112 11 126 -3z m172 2 c0 -5 -13 -11
-30 -11 -16 -1 -34 -3 -40 -4 -5 -1 -14 -3 -20 -4 -5 0 -10 -8 -10 -16 0 -11
11 -15 38 -15 51 0 64 -11 60 -51 l-3 -34 -62 -3 c-39 -2 -63 1 -63 8 0 10 3
11 55 14 65 4 70 36 6 36 -20 0 -42 5 -49 12 -13 13 -16 60 -5 71 10 11 123 8
123 -3z m160 1 c0 -6 -21 -11 -47 -13 -36 -2 -49 -7 -51 -20 -3 -15 4 -18 47
-18 38 0 51 -4 51 -15 0 -10 -15 -15 -55 -17 -41 -2 -52 -6 -46 -16 6 -10 34
-17 94 -21 4 -1 7 -5 7 -11 0 -14 -104 -12 -118 2 -16 16 -16 110 0 126 14 14
118 16 118 3z m158 -3 c15 -15 16 -60 0 -76 -9 -9 -9 -18 0 -37 10 -21 9 -25
-3 -25 -9 0 -21 11 -27 25 -8 18 -19 25 -40 25 -23 0 -28 -4 -28 -25 0 -16 -6
-25 -15 -25 -12 0 -15 15 -15 75 l0 75 58 0 c32 0 63 -5 70 -12z m62 3 c0 -5
11 -33 24 -62 l24 -54 27 63 c16 35 34 62 42 62 8 0 13 -4 11 -8 -70 -171 -83
-178 -128 -76 -34 75 -36 84 -15 84 8 0 15 -4 15 -9z m180 -66 c0 -43 -4 -75
-10 -75 -5 0 -11 12 -11 28 -1 15 -3 38 -5 52 -4 34 4 70 16 70 6 0 10 -33 10
-75z m170 65 c0 -5 -19 -10 -43 -10 -51 0 -67 -13 -67 -56 0 -40 11 -48 67
-45 32 1 43 -3 43 -14 0 -22 -103 -21 -124 1 -18 18 -21 85 -6 115 9 15 22 19
70 19 33 0 60 -4 60 -10z m160 0 c0 -5 -18 -10 -39 -10 -49 0 -71 -8 -71 -26
0 -9 16 -14 50 -16 28 -2 50 -7 50 -13 0 -5 -22 -11 -50 -13 -83 -5 -59 -41
28 -42 17 0 32 -4 32 -10 0 -6 -27 -10 -60 -10 -67 0 -80 12 -80 75 0 63 13
75 80 75 33 0 60 -4 60 -10z"/>
<path d="M2708 3801 c-14 -16 -15 -26 -7 -49 9 -26 16 -30 57 -35 38 -4 53
-12 77 -40 l30 -34 73 20 c54 14 72 23 70 35 -4 20 -109 78 -173 96 -95 27
-109 28 -127 7z"/>
<path d="M3190 3715 c0 -8 7 -15 15 -15 8 0 15 7 15 15 0 8 -7 15 -15 15 -8 0
-15 -7 -15 -15z"/>
<path d="M2699 3693 c-49 -20 -69 -50 -69 -104 0 -38 6 -53 28 -77 59 -63 147
-47 186 32 46 93 -48 190 -145 149z m41 -46 c8 0 27 3 43 8 25 7 27 5 28 -21
0 -25 1 -26 9 -9 6 14 9 4 9 -36 l1 -57 -39 -4 c-22 -2 -37 0 -35 4 3 5 17 8
31 8 15 0 24 3 20 6 -11 11 -78 -6 -71 -18 5 -8 1 -9 -10 -5 -10 4 -29 7 -42
7 -22 0 -24 4 -24 53 0 59 14 81 45 70 11 -4 27 -6 35 -6z"/>
<path d="M2670 3549 c0 -5 11 -9 25 -9 14 0 25 2 25 4 0 2 -11 6 -25 8 -14 3
-25 1 -25 -3z"/>
<path d="M1994 3577 c-11 -12 -23 -34 -26 -48 -4 -23 0 -29 32 -43 20 -9 40
-16 44 -16 16 0 96 76 96 91 0 13 -14 20 -50 28 -68 15 -72 14 -96 -12z"/>
<path d="M1853 3559 c-33 -16 -43 -27 -43 -45 0 -32 45 -63 69 -46 9 7 28 17
44 23 20 8 27 18 27 38 0 54 -31 63 -97 30z"/>
<path d="M1699 3433 c-44 -63 -62 -112 -49 -128 9 -10 20 -9 63 6 29 11 71 26
93 35 38 14 42 18 46 55 5 52 -17 72 -78 74 -43 2 -47 0 -75 -42z"/>
<path d="M1895 3457 c-18 -15 -28 -36 -32 -64 -5 -37 -2 -45 25 -73 42 -41 92
-42 133 -1 84 85 -36 216 -126 138z m85 -22 c6 -8 9 -19 5 -25 -3 -5 2 -13 12
-17 23 -8 32 -23 26 -40 -7 -18 -42 -17 -49 2 -8 20 -24 19 -39 -2 -14 -19
-45 -11 -45 13 0 9 9 18 20 21 12 3 20 14 20 27 0 38 27 49 50 21z"/>
<path d="M1946 3432 c-3 -6 -1 -14 5 -17 15 -10 25 3 12 16 -7 7 -13 7 -17 1z"/>
<path d="M1940 3390 c0 -5 9 -10 19 -10 10 0 21 -7 25 -15 3 -8 10 -15 16 -15
5 0 10 7 10 15 0 8 -7 15 -15 15 -8 0 -15 5 -15 10 0 6 -9 10 -20 10 -11 0
-20 -4 -20 -10z"/>
<path d="M1900 3365 c0 -8 7 -15 15 -15 8 0 15 7 15 15 0 8 -7 15 -15 15 -8 0
-15 -7 -15 -15z"/>
<path d="M2122 3410 c-42 -6 -62 -21 -62 -47 0 -6 -2 -18 -5 -25 -8 -19 119
-120 139 -112 24 9 23 162 -1 180 -10 7 -20 13 -23 12 -3 0 -25 -4 -48 -8z"/>
<path d="M2020 3295 c-11 -14 -10 -25 7 -73 17 -47 25 -57 50 -64 35 -9 103
14 103 36 0 12 -107 102 -134 112 -7 3 -19 -2 -26 -11z"/>
<path d="M3430 3775 c0 -8 7 -15 15 -15 8 0 15 7 15 15 0 8 -7 15 -15 15 -8 0
-15 -7 -15 -15z"/>
<path d="M3465 3620 c-7 -12 2 -30 16 -30 12 0 12 27 0 35 -5 3 -12 1 -16 -5z"/>
<path d="M3389 3175 c-53 -29 -61 -105 -17 -152 31 -34 97 -32 132 3 75 76
-22 202 -115 149z m61 -25 c0 -5 9 -10 21 -10 14 0 19 -5 16 -14 -3 -7 0 -19
6 -25 9 -9 9 -14 -1 -20 -7 -4 -12 -12 -10 -17 2 -5 -1 -11 -7 -12 -5 -2 -16
-9 -23 -14 -9 -8 -16 -8 -24 0 -6 6 -17 8 -24 5 -9 -3 -14 2 -14 15 0 11 -5
22 -10 24 -15 5 10 53 35 65 27 14 35 15 35 3z"/>
<path d="M3416 3103 c-4 -9 0 -23 9 -32 15 -15 18 -14 30 3 11 14 12 23 4 33
-16 18 -36 16 -43 -4z"/>
<path d="M3193 3093 c-8 -3 -13 -24 -13 -56 0 -52 0 -52 44 -72 l43 -21 42 37
41 37 -15 35 c-11 26 -22 36 -46 41 -36 7 -78 7 -96 -1z"/>
<path d="M3538 3042 c-17 -36 -17 -37 8 -75 19 -30 29 -37 42 -31 9 5 37 8 62
7 44 -1 45 -1 78 54 18 31 31 62 28 70 -4 10 -30 13 -103 13 l-98 -1 -17 -37z"/>
<path d="M3741 2994 l-34 -56 22 -38 c11 -21 21 -45 21 -53 0 -23 76 -27 97
-5 20 22 13 93 -16 161 -27 63 -47 61 -90 -9z"/>
<path d="M3320 2972 l-41 -37 12 -47 c11 -40 10 -52 -4 -89 l-17 -44 49 -49
c48 -48 49 -48 80 -35 17 8 31 17 31 20 0 37 -24 113 -41 130 l-21 21 20 21
c11 12 23 42 27 67 6 42 4 46 -24 62 -30 16 -30 16 -71 -20z"/>
<path d="M3470 2984 c-32 -11 -36 -16 -42 -59 -8 -56 4 -73 54 -81 30 -5 35
-2 55 37 l23 42 -28 36 c-26 35 -28 36 -62 25z"/>
<path d="M3092 2932 c-85 -79 -22 -214 92 -199 103 14 132 147 46 214 -8 7
-36 13 -61 13 -38 0 -53 -5 -77 -28z m106 -14 c7 -7 12 -20 12 -30 0 -10 5
-18 10 -18 6 0 10 -20 10 -45 l0 -45 -60 0 -60 0 0 45 c0 25 5 45 10 45 6 0
10 8 10 18 0 22 19 42 40 42 9 0 21 -5 28 -12z"/>
<path d="M3147 2896 c-7 -18 1 -26 25 -26 11 0 18 7 18 20 0 23 -35 28 -43 6z"/>
<path d="M3160 2818 c0 -19 2 -20 10 -8 13 19 13 30 0 30 -5 0 -10 -10 -10
-22z"/>
<path d="M3590 2917 c-71 -36 -62 -151 13 -176 42 -14 76 -3 106 35 64 81 -26
188 -119 141z m56 -64 c-1 -44 1 -48 22 -46 13 2 21 -1 17 -7 -3 -6 -13 -10
-21 -10 -8 0 -14 -7 -14 -15 0 -18 -16 -20 -26 -4 -4 7 -9 30 -12 53 -2 23 -9
44 -15 48 -6 4 -8 10 -4 14 10 11 18 -1 27 -38 8 -33 8 -33 9 10 1 23 5 42 9
42 5 0 8 -21 8 -47z m25 -7 c-9 -18 -17 -30 -19 -26 -4 12 17 60 26 60 5 0 2
-15 -7 -34z m-75 -15 c-11 -17 -25 -13 -21 7 2 9 4 19 4 22 1 2 6 -1 12 -7 6
-6 8 -16 5 -22z m99 -2 c-10 -15 -25 -10 -19 6 4 8 10 12 15 9 5 -3 7 -10 4
-15z"/>
<path d="M3435 2819 c-4 -5 -4 -36 0 -69 6 -50 10 -59 30 -64 13 -3 30 -8 38
-12 9 -3 22 7 35 28 l21 34 -22 46 c-20 43 -25 47 -59 48 -20 0 -40 -5 -43
-11z"/>
<path d="M3745 2799 c-4 -13 -21 -36 -38 -52 l-30 -28 33 -84 c42 -109 56
-111 105 -12 61 124 53 180 -27 193 -31 6 -37 3 -43 -17z"/>
<path d="M3236 2734 c-11 -7 -30 -14 -43 -14 -22 0 -23 -3 -23 -74 0 -94 6
-100 99 -90 61 6 71 9 71 26 0 11 5 29 11 40 10 18 4 27 -42 74 -50 49 -56 52
-73 38z"/>
<path d="M3551 2696 c-21 -33 -21 -37 -7 -58 9 -12 16 -35 16 -50 0 -24 6 -29
43 -39 23 -7 60 -12 82 -13 47 -1 48 1 7 111 -24 64 -30 73 -52 73 -14 0 -35
3 -46 6 -17 4 -26 -2 -43 -30z"/>
<path d="M3393 2655 c-32 -22 -48 -79 -33 -115 17 -42 44 -62 84 -63 93 -3
137 103 71 169 -28 28 -88 33 -122 9z m68 -25 c12 -7 19 -21 19 -42 0 -17 7
-40 17 -50 9 -10 11 -18 6 -18 -6 0 -16 6 -22 14 -6 7 -22 11 -34 9 -50 -10
-76 53 -35 81 27 19 24 19 49 6z"/>
<path d="M3411 2603 c-13 -26 1 -45 30 -41 18 2 24 9 24 28 0 32 -39 41 -54
13z"/>
<path d="M3547 2516 c-32 -49 -93 -66 -148 -42 -19 8 -70 -59 -62 -82 9 -22
171 -11 240 17 67 26 133 70 133 87 0 13 -37 26 -111 39 -31 6 -38 3 -52 -19z"/>
<path d="M2800 3000 c0 -5 5 -10 10 -10 6 0 10 5 10 10 0 6 -4 10 -10 10 -5 0
-10 -4 -10 -10z"/>
<path d="M2810 2640 c0 -5 5 -10 10 -10 6 0 10 5 10 10 0 6 -4 10 -10 10 -5 0
-10 -4 -10 -10z"/>
<path d="M2370 2891 c0 -10 19 -25 25 -20 1 2 -3 10 -11 17 -8 7 -14 8 -14 3z"/>
<path d="M1936 2622 c-3 -5 1 -9 9 -9 8 0 12 4 9 9 -3 4 -7 8 -9 8 -2 0 -6 -4
-9 -8z"/>
<path d="M2850 2470 c0 -5 14 -10 31 -10 17 0 28 4 24 10 -3 6 -17 10 -31 10
-13 0 -24 -4 -24 -10z"/>
<path d="M2863 2443 c9 -2 25 -2 35 0 9 3 1 5 -18 5 -19 0 -27 -2 -17 -5z"/>
<path d="M2850 2420 c0 -5 11 -10 24 -10 14 0 28 5 31 10 4 6 -7 10 -24 10
-17 0 -31 -4 -31 -10z"/>
<path d="M3210 2040 c0 -11 7 -20 15 -20 8 0 15 9 15 20 0 11 -7 20 -15 20 -8
0 -15 -9 -15 -20z"/>
<path d="M1637 1704 c-4 -4 -7 -31 -7 -60 0 -48 3 -54 24 -60 13 -3 38 -4 57
-2 l34 3 0 60 0 60 -50 3 c-28 2 -54 0 -58 -4z"/>
<path d="M2590 1645 l0 -65 43 0 c55 0 67 13 67 71 0 53 -8 59 -71 59 l-39 0
0 -65z"/>
<path d="M3340 1685 c0 -23 4 -25 43 -25 50 0 72 12 64 34 -5 12 -20 16 -57
16 -47 0 -50 -2 -50 -25z"/>
<path d="M3340 1604 c0 -24 2 -25 53 -22 45 3 52 6 55 26 3 21 0 22 -52 22
-53 0 -56 -1 -56 -26z"/>
<path d="M2130 1360 c0 -30 2 -31 38 -28 32 3 37 6 37 28 0 22 -5 25 -37 28
-36 3 -38 2 -38 -28z"/>
<path d="M2302 1378 c-7 -7 -12 -27 -12 -45 0 -39 27 -57 71 -48 27 6 29 10
29 50 0 30 -5 45 -16 49 -25 10 -59 7 -72 -6z"/>
<path d="M2800 1360 c0 -30 2 -31 38 -28 32 3 37 6 37 28 0 22 -5 25 -37 28
-36 3 -38 2 -38 -28z"/>
</g>
</svg>
